<?xml version="1.0" encoding="UTF-8"?><svg xmlns="http://www.w3.org/2000/svg" xmlns:xlink="http://www.w3.org/1999/xlink" fill-opacity="1" color-rendering="auto" color-interpolation="auto" stroke="black" text-rendering="auto" stroke-linecap="square" width="768" stroke-miterlimit="10" stroke-opacity="1" shape-rendering="auto" fill="black" stroke-dasharray="none" font-weight="normal" stroke-width="1" height="847" font-family="'Dialog'" font-style="normal" stroke-linejoin="miter" font-size="12" stroke-dashoffset="0" image-rendering="auto">
  <!--Generated by ySVG-->
  <defs id="genericDefs"/>
  <g>
    <defs id="defs1">
      <clipPath clipPathUnits="userSpaceOnUse" id="clipPath1">
        <path d="M0 0 L768 0 L768 847 L0 847 L0 0 Z"/>
      </clipPath>
      <clipPath clipPathUnits="userSpaceOnUse" id="clipPath2">
        <path d="M-245 -70 L523 -70 L523 777 L-245 777 L-245 -70 Z"/>
      </clipPath>
    </defs>
    <g fill="white" transform="translate(245,70)" stroke="white">
      <rect x="-245" width="768" height="847" y="-70" clip-path="url(#clipPath2)" stroke="none"/>
    </g>
    <g fill="rgb(255,204,0)" transform="matrix(1,0,0,1,245,70)" stroke="rgb(255,204,0)">
      <path d="M-147 -3 L-95 -55 L-43 -3 L-95 49 Z" clip-path="url(#clipPath2)" fill-rule="evenodd" stroke="none"/>
    </g>
    <g stroke-miterlimit="1.45" font-family="sans-serif" transform="matrix(1,0,0,1,245,70)" stroke-linecap="butt">
      <text x="-124.3496" xml:space="preserve" y="1.7139" clip-path="url(#clipPath2)" stroke="none">Global Site</text>
      <path fill="none" d="M-147 -3 L-95 -55 L-43 -3 L-95 49 Z" fill-rule="evenodd" clip-path="url(#clipPath2)"/>
    </g>
    <g fill="rgb(255,204,0)" transform="matrix(1,0,0,1,245,70)" stroke="rgb(255,204,0)">
      <rect x="-230" width="83" height="30" y="72.2" clip-path="url(#clipPath2)" stroke="none"/>
    </g>
    <g stroke-miterlimit="1.45" font-family="sans-serif" transform="matrix(1,0,0,1,245,70)" stroke-linecap="butt">
      <text x="-204.5049" xml:space="preserve" y="91.9139" clip-path="url(#clipPath2)" stroke="none">Home</text>
      <rect fill="none" x="-230" width="83" height="30" y="72.2" clip-path="url(#clipPath2)"/>
    </g>
    <g fill="rgb(255,204,0)" transform="matrix(1,0,0,1,245,70)" stroke="rgb(255,204,0)">
      <rect x="-203.5" y="138.6" clip-path="url(#clipPath2)" width="104" rx="4" ry="4" height="30" stroke="none"/>
    </g>
    <g stroke-miterlimit="1.45" font-family="sans-serif" transform="matrix(1,0,0,1,245,70)" stroke-linecap="butt">
      <text x="-177.1787" xml:space="preserve" y="158.3139" clip-path="url(#clipPath2)" stroke="none">Countries</text>
      <rect x="-203.5" y="138.6" clip-path="url(#clipPath2)" fill="none" width="104" rx="4" ry="4" height="30"/>
    </g>
    <g fill="rgb(255,204,0)" transform="matrix(1,0,0,1,245,70)" stroke="rgb(255,204,0)">
      <rect x="-203.5" y="186.1" clip-path="url(#clipPath2)" width="104" rx="4" ry="4" height="30" stroke="none"/>
    </g>
    <g stroke-miterlimit="1.45" font-family="sans-serif" transform="matrix(1,0,0,1,245,70)" stroke-linecap="butt">
      <text x="-166.5029" xml:space="preserve" y="205.8139" clip-path="url(#clipPath2)" stroke="none">Cities</text>
      <rect x="-203.5" y="186.1" clip-path="url(#clipPath2)" fill="none" width="104" rx="4" ry="4" height="30"/>
    </g>
    <g fill="rgb(255,204,0)" transform="matrix(1,0,0,1,245,70)" stroke="rgb(255,204,0)">
      <rect x="-203.5" y="233.6" clip-path="url(#clipPath2)" width="104" rx="4" ry="4" height="30" stroke="none"/>
    </g>
    <g stroke-miterlimit="1.45" font-family="sans-serif" transform="matrix(1,0,0,1,245,70)" stroke-linecap="butt">
      <text x="-169.8428" xml:space="preserve" y="253.3139" clip-path="url(#clipPath2)" stroke="none">Events</text>
      <rect x="-203.5" y="233.6" clip-path="url(#clipPath2)" fill="none" width="104" rx="4" ry="4" height="30"/>
    </g>
    <g fill="rgb(255,204,0)" transform="matrix(1,0,0,1,245,70)" stroke="rgb(255,204,0)">
      <rect x="-203.5" y="281.1" clip-path="url(#clipPath2)" width="104" rx="4" ry="4" height="30" stroke="none"/>
    </g>
    <g stroke-miterlimit="1.45" font-family="sans-serif" transform="matrix(1,0,0,1,245,70)" stroke-linecap="butt">
      <text x="-166.5029" xml:space="preserve" y="300.8139" clip-path="url(#clipPath2)" stroke="none">News</text>
      <rect x="-203.5" y="281.1" clip-path="url(#clipPath2)" fill="none" width="104" rx="4" ry="4" height="30"/>
    </g>
    <g fill="rgb(255,204,0)" transform="matrix(1,0,0,1,245,70)" stroke="rgb(255,204,0)">
      <path d="M238.0001 -3 L290 -55 L341.9998 -3 L290 49 Z" clip-path="url(#clipPath2)" fill-rule="evenodd" stroke="none"/>
    </g>
    <g stroke-miterlimit="1.45" font-family="sans-serif" transform="matrix(1,0,0,1,245,70)" stroke-linecap="butt">
      <text x="258.9805" xml:space="preserve" y="1.7139" clip-path="url(#clipPath2)" stroke="none">Region Site</text>
      <path fill="none" d="M238.0001 -3 L290 -55 L341.9998 -3 L290 49 Z" fill-rule="evenodd" clip-path="url(#clipPath2)"/>
    </g>
    <g fill="rgb(255,204,0)" transform="matrix(1,0,0,1,245,70)" stroke="rgb(255,204,0)">
      <rect x="323" width="83" height="30" y="72.2" clip-path="url(#clipPath2)" stroke="none"/>
    </g>
    <g stroke-miterlimit="1.45" font-family="sans-serif" transform="matrix(1,0,0,1,245,70)" stroke-linecap="butt">
      <text x="348.4951" xml:space="preserve" y="91.9139" clip-path="url(#clipPath2)" stroke="none">Home</text>
      <rect fill="none" x="323" width="83" height="30" y="72.2" clip-path="url(#clipPath2)"/>
    </g>
    <g fill="rgb(255,204,0)" transform="matrix(1,0,0,1,245,70)" stroke="rgb(255,204,0)">
      <rect x="349.5" y="138.6" clip-path="url(#clipPath2)" width="104" rx="4" ry="4" height="30" stroke="none"/>
    </g>
    <g stroke-miterlimit="1.45" font-family="sans-serif" transform="matrix(1,0,0,1,245,70)" stroke-linecap="butt">
      <text x="386.4971" xml:space="preserve" y="158.3139" clip-path="url(#clipPath2)" stroke="none">News</text>
      <rect x="349.5" y="138.6" clip-path="url(#clipPath2)" fill="none" width="104" rx="4" ry="4" height="30"/>
    </g>
    <g fill="rgb(255,204,0)" transform="matrix(1,0,0,1,245,70)" stroke="rgb(255,204,0)">
      <rect x="349.5" y="186.1" clip-path="url(#clipPath2)" width="104" rx="4" ry="4" height="30" stroke="none"/>
    </g>
    <g stroke-miterlimit="1.45" font-family="sans-serif" transform="matrix(1,0,0,1,245,70)" stroke-linecap="butt">
      <text x="386.4971" xml:space="preserve" y="205.8139" clip-path="url(#clipPath2)" stroke="none">Cities</text>
      <rect x="349.5" y="186.1" clip-path="url(#clipPath2)" fill="none" width="104" rx="4" ry="4" height="30"/>
    </g>
    <g fill="rgb(255,204,0)" transform="matrix(1,0,0,1,245,70)" stroke="rgb(255,204,0)">
      <rect x="349.5" y="233.6" clip-path="url(#clipPath2)" width="104" rx="4" ry="4" height="30" stroke="none"/>
    </g>
    <g stroke-miterlimit="1.45" font-family="sans-serif" transform="matrix(1,0,0,1,245,70)" stroke-linecap="butt">
      <text x="383.1572" xml:space="preserve" y="253.3139" clip-path="url(#clipPath2)" stroke="none">Events</text>
      <rect x="349.5" y="233.6" clip-path="url(#clipPath2)" fill="none" width="104" rx="4" ry="4" height="30"/>
    </g>
    <g fill="rgb(255,204,0)" transform="matrix(1,0,0,1,245,70)" stroke="rgb(255,204,0)">
      <rect x="-205.2" y="328.6" clip-path="url(#clipPath2)" width="104" rx="4" ry="4" height="30" stroke="none"/>
    </g>
    <g stroke-miterlimit="1.45" font-family="sans-serif" transform="matrix(1,0,0,1,245,70)" stroke-linecap="butt">
      <text x="-168.8797" xml:space="preserve" y="348.3139" clip-path="url(#clipPath2)" stroke="none">About</text>
      <rect x="-205.2" y="328.6" clip-path="url(#clipPath2)" fill="none" width="104" rx="4" ry="4" height="30"/>
    </g>
    <g fill="rgb(255,204,0)" transform="matrix(1,0,0,1,245,70)" stroke="rgb(255,204,0)">
      <path d="M73 182 L125 130 L177 182 L125 234 Z" clip-path="url(#clipPath2)" fill-rule="evenodd" stroke="none"/>
    </g>
    <g stroke-miterlimit="1.45" font-family="sans-serif" transform="matrix(1,0,0,1,245,70)" stroke-linecap="butt">
      <text x="82.3203" xml:space="preserve" y="186.7139" clip-path="url(#clipPath2)" stroke="none">City/Project Site</text>
      <path fill="none" d="M73 182 L125 130 L177 182 L125 234 Z" fill-rule="evenodd" clip-path="url(#clipPath2)"/>
    </g>
    <g fill="rgb(255,204,0)" transform="matrix(1,0,0,1,245,70)" stroke="rgb(255,204,0)">
      <rect x="158" width="83" height="30" y="257.2" clip-path="url(#clipPath2)" stroke="none"/>
    </g>
    <g stroke-miterlimit="1.45" font-family="sans-serif" transform="matrix(1,0,0,1,245,70)" stroke-linecap="butt">
      <text x="183.4951" xml:space="preserve" y="276.9139" clip-path="url(#clipPath2)" stroke="none">Home</text>
      <rect fill="none" x="158" width="83" height="30" y="257.2" clip-path="url(#clipPath2)"/>
    </g>
    <g fill="rgb(255,204,0)" transform="matrix(1,0,0,1,245,70)" stroke="rgb(255,204,0)">
      <rect x="184.5" y="323.6" clip-path="url(#clipPath2)" width="104" rx="4" ry="4" height="30" stroke="none"/>
    </g>
    <g stroke-miterlimit="1.45" font-family="sans-serif" transform="matrix(1,0,0,1,245,70)" stroke-linecap="butt">
      <text x="221.4971" xml:space="preserve" y="343.3139" clip-path="url(#clipPath2)" stroke="none">News</text>
      <rect x="184.5" y="323.6" clip-path="url(#clipPath2)" fill="none" width="104" rx="4" ry="4" height="30"/>
    </g>
    <g fill="rgb(255,204,0)" transform="matrix(1,0,0,1,245,70)" stroke="rgb(255,204,0)">
      <rect x="184.5" y="476.2" clip-path="url(#clipPath2)" width="104" rx="4" ry="4" height="30" stroke="none"/>
    </g>
    <g stroke-miterlimit="1.45" font-family="sans-serif" transform="matrix(1,0,0,1,245,70)" stroke-linecap="butt">
      <text x="218.1572" xml:space="preserve" y="495.9139" clip-path="url(#clipPath2)" stroke="none">Events</text>
      <rect x="184.5" y="476.2" clip-path="url(#clipPath2)" fill="none" width="104" rx="4" ry="4" height="30"/>
    </g>
    <g fill="rgb(255,204,0)" transform="matrix(1,0,0,1,245,70)" stroke="rgb(255,204,0)">
      <rect x="228" y="524.2" clip-path="url(#clipPath2)" width="104" rx="4" ry="4" height="30" stroke="none"/>
    </g>
    <g stroke-miterlimit="1.45" font-family="sans-serif" transform="matrix(1,0,0,1,245,70)" stroke-linecap="butt">
      <text x="256.3164" xml:space="preserve" y="543.9139" clip-path="url(#clipPath2)" stroke="none">Event #1</text>
      <rect x="228" y="524.2" clip-path="url(#clipPath2)" fill="none" width="104" rx="4" ry="4" height="30"/>
    </g>
    <g fill="rgb(255,204,0)" transform="matrix(1,0,0,1,245,70)" stroke="rgb(255,204,0)">
      <rect x="228" y="572.2" clip-path="url(#clipPath2)" width="104" rx="4" ry="4" height="30" stroke="none"/>
    </g>
    <g stroke-miterlimit="1.45" font-family="sans-serif" transform="matrix(1,0,0,1,245,70)" stroke-linecap="butt">
      <text x="256.3164" xml:space="preserve" y="591.9139" clip-path="url(#clipPath2)" stroke="none">Event #2</text>
      <rect x="228" y="572.2" clip-path="url(#clipPath2)" fill="none" width="104" rx="4" ry="4" height="30"/>
    </g>
    <g fill="rgb(255,204,0)" transform="matrix(1,0,0,1,245,70)" stroke="rgb(255,204,0)">
      <rect x="228" y="375.2" clip-path="url(#clipPath2)" width="104" rx="4" ry="4" height="30" stroke="none"/>
    </g>
    <g stroke-miterlimit="1.45" font-family="sans-serif" transform="matrix(1,0,0,1,245,70)" stroke-linecap="butt">
      <text x="256.6562" xml:space="preserve" y="394.9139" clip-path="url(#clipPath2)" stroke="none">News #1</text>
      <rect x="228" y="375.2" clip-path="url(#clipPath2)" fill="none" width="104" rx="4" ry="4" height="30"/>
    </g>
    <g fill="rgb(255,204,0)" transform="matrix(1,0,0,1,245,70)" stroke="rgb(255,204,0)">
      <rect x="228" y="423.2" clip-path="url(#clipPath2)" width="104" rx="4" ry="4" height="30" stroke="none"/>
    </g>
    <g stroke-miterlimit="1.45" font-family="sans-serif" transform="matrix(1,0,0,1,245,70)" stroke-linecap="butt">
      <text x="256.6562" xml:space="preserve" y="442.9139" clip-path="url(#clipPath2)" stroke="none">News #2</text>
      <rect x="228" y="423.2" clip-path="url(#clipPath2)" fill="none" width="104" rx="4" ry="4" height="30"/>
    </g>
    <g fill="rgb(255,204,0)" transform="matrix(1,0,0,1,245,70)" stroke="rgb(255,204,0)">
      <rect x="-205.2" y="376.1" clip-path="url(#clipPath2)" width="104" rx="4" ry="4" height="30" stroke="none"/>
    </g>
    <g stroke-miterlimit="1.45" font-family="sans-serif" transform="matrix(1,0,0,1,245,70)" stroke-linecap="butt">
      <text x="-169.5418" xml:space="preserve" y="395.8139" clip-path="url(#clipPath2)" stroke="none">Media</text>
      <rect x="-205.2" y="376.1" clip-path="url(#clipPath2)" fill="none" width="104" rx="4" ry="4" height="30"/>
    </g>
    <g fill="rgb(255,204,0)" transform="matrix(1,0,0,1,245,70)" stroke="rgb(255,204,0)">
      <rect x="184.5" y="632.2" clip-path="url(#clipPath2)" width="104" rx="4" ry="4" height="30" stroke="none"/>
    </g>
    <g stroke-miterlimit="1.45" font-family="sans-serif" transform="matrix(1,0,0,1,245,70)" stroke-linecap="butt">
      <text x="220.1582" xml:space="preserve" y="651.9139" clip-path="url(#clipPath2)" stroke="none">Media</text>
      <rect x="184.5" y="632.2" clip-path="url(#clipPath2)" fill="none" width="104" rx="4" ry="4" height="30"/>
    </g>
    <g fill="rgb(255,204,0)" transform="matrix(1,0,0,1,245,70)" stroke="rgb(255,204,0)">
      <rect x="228" y="683.4" clip-path="url(#clipPath2)" width="104" rx="4" ry="4" height="30" stroke="none"/>
    </g>
    <g stroke-miterlimit="1.45" font-family="sans-serif" transform="matrix(1,0,0,1,245,70)" stroke-linecap="butt">
      <text x="234.3115" xml:space="preserve" y="703.1139" clip-path="url(#clipPath2)" stroke="none">Image Gallery #1</text>
      <rect x="228" y="683.4" clip-path="url(#clipPath2)" fill="none" width="104" rx="4" ry="4" height="30"/>
    </g>
    <g fill="rgb(255,204,0)" transform="matrix(1,0,0,1,245,70)" stroke="rgb(255,204,0)">
      <rect x="228" y="731.4" clip-path="url(#clipPath2)" width="104" rx="4" ry="4" height="30" stroke="none"/>
    </g>
    <g stroke-miterlimit="1.45" font-family="sans-serif" transform="matrix(1,0,0,1,245,70)" stroke-linecap="butt">
      <text x="256.3135" xml:space="preserve" y="751.1139" clip-path="url(#clipPath2)" stroke="none">Video #1</text>
      <rect x="228" y="731.4" clip-path="url(#clipPath2)" fill="none" width="104" rx="4" ry="4" height="30"/>
      <path fill="none" d="M-121.4567 22.5229 L-167.1937 66.6457" clip-path="url(#clipPath2)"/>
      <path d="M-172.9512 72.2 L-160.8434 67.467 L-166.474 65.9514 L-167.7864 60.27 Z" clip-path="url(#clipPath2)" stroke="none"/>
      <path fill="none" d="M-223 102.1998 L-223 153.6 L-211.4841 153.6" clip-path="url(#clipPath2)"/>
      <path d="M-203.4841 153.6 L-215.4841 148.6 L-212.4841 153.6 L-215.4841 158.6 Z" clip-path="url(#clipPath2)" stroke="none"/>
      <path fill="none" d="M-225.15 102.1779 L-225.15 201.1 L-211.465 201.1" clip-path="url(#clipPath2)"/>
      <path d="M-203.465 201.1 L-215.465 196.1 L-212.465 201.1 L-215.465 206.1 Z" clip-path="url(#clipPath2)" stroke="none"/>
      <path fill="none" d="M-224.35 102.1675 L-224.35 248.6 L-211.4697 248.6" clip-path="url(#clipPath2)"/>
      <path d="M-203.4697 248.6 L-215.4697 243.6 L-212.4697 248.6 L-215.4697 253.6 Z" clip-path="url(#clipPath2)" stroke="none"/>
      <path fill="none" d="M-225.2 102.1936 L-225.2 296.1 L-211.5002 296.1" clip-path="url(#clipPath2)"/>
      <path d="M-203.5002 296.1 L-215.5002 291.1 L-212.5002 296.1 L-215.5002 301.1 Z" clip-path="url(#clipPath2)" stroke="none"/>
      <path fill="none" stroke-dasharray="6,2" d="M-129.6049 138.6087 L-126.5049 136.4862 L-101.1633 120.3493 L-75.4752 105.1892 L-49.4406 91.006 L-23.0595 77.7995 L3.668 65.5699 L30.742 54.3172 L58.1625 44.0413 L85.9295 34.7422 L114.043 26.4199 L142.503 19.0745 L171.3094 12.706 L200.4623 7.3142 L229.9617 2.8993 L234.5181 2.3744" clip-path="url(#clipPath2)"/>
      <path stroke-dasharray="6,2" d="M242.4655 1.4589 L229.9722 -2.135 L233.5247 2.4889 L231.1165 7.7993 Z" clip-path="url(#clipPath2)" stroke="none"/>
      <path fill="none" d="M313.5177 25.4738 L347.0164 66.0319" clip-path="url(#clipPath2)"/>
      <path d="M352.1109 72.2 L348.3242 59.7637 L346.3795 65.2609 L340.614 66.1319 Z" clip-path="url(#clipPath2)" stroke="none"/>
      <path fill="none" d="M330 102.1998 L330 153.6 L341.5159 153.6" clip-path="url(#clipPath2)"/>
      <path d="M349.5159 153.6 L337.5159 148.6 L340.5159 153.6 L337.5159 158.6 Z" clip-path="url(#clipPath2)" stroke="none"/>
      <path fill="none" d="M327.85 102.1779 L327.85 201.1 L341.535 201.1" clip-path="url(#clipPath2)"/>
      <path d="M349.535 201.1 L337.535 196.1 L340.535 201.1 L337.535 206.1 Z" clip-path="url(#clipPath2)" stroke="none"/>
      <path fill="none" d="M328.65 102.1675 L328.65 248.6 L341.5303 248.6" clip-path="url(#clipPath2)"/>
      <path d="M349.5303 248.6 L337.5303 243.6 L340.5303 248.6 L337.5303 253.6 Z" clip-path="url(#clipPath2)" stroke="none"/>
      <path fill="none" d="M-226.2 102.2252 L-226.2 343.6 L-213.2054 343.6" clip-path="url(#clipPath2)"/>
      <path d="M-205.2054 343.6 L-217.2054 338.6 L-214.2054 343.6 L-217.2054 348.6 Z" clip-path="url(#clipPath2)" stroke="none"/>
      <path fill="none" stroke-dasharray="6,2" d="M-99.5152 194.2101 L-89.4987 191.8891 L-59.146 186.2778 L-28.6966 182.0659 L1.8495 179.2537 L32.4922 177.8409 L63.2315 177.8278 L68.5797 178.0682" clip-path="url(#clipPath2)"/>
      <path stroke-dasharray="6,2" d="M76.5716 178.4275 L64.8083 172.8936 L67.5807 178.0233 L64.3592 182.8835 Z" clip-path="url(#clipPath2)" stroke="none"/>
      <path fill="none" stroke-dasharray="6,2" d="M349.4943 201.0835 L322.6894 184.2073 L295.5057 171.4589 L281.7817 166.6388 L267.9695 162.8548 L254.0692 160.107 L240.0807 158.3952 L226.0042 157.7195 L211.8394 158.0798 L197.5865 159.4763 L183.2455 161.9089 L170.2943 165.4763" clip-path="url(#clipPath2)"/>
      <path stroke-dasharray="6,2" d="M162.5816 167.6008 L175.4785 169.2345 L171.2584 165.2108 L172.8229 159.5936 Z" clip-path="url(#clipPath2)" stroke="none"/>
      <path fill="none" d="M148.5177 210.4738 L182.0163 251.0319" clip-path="url(#clipPath2)"/>
      <path d="M187.1109 257.2 L183.3242 244.7637 L181.3795 250.2609 L175.614 251.1319 Z" clip-path="url(#clipPath2)" stroke="none"/>
      <path fill="none" stroke-dasharray="6,2" d="M216.216 257.1787 L217.0943 256.3696 L220.3237 253.221 L223.3406 250.0601 L226.1098 246.8849 L228.5957 243.6934 L230.763 240.4834 L232.5762 237.2529 L234 234 L235.006 230.7182 L235.594 227.3839 L235.7709 223.969 L235.5437 220.4458 L234.9191 216.7861 L233.904 212.9621 L232.5054 208.9457 L230.7302 204.709 L228.5851 200.2241 L226.0771 195.4629 L223.2131 190.3975 L220 185 L216.4668 179.251 L212.7311 173.1654 L208.9328 166.767 L205.2116 160.0794 L201.7075 153.1261 L198.5603 145.9308 L195.9097 138.5172 L193.8955 130.9087 L192.6576 123.1292 L192.3359 115.2021 L193.0701 107.1512 L195 99 L198.2236 90.7693 L202.6715 82.4683 L208.2324 74.1035 L214.795 65.6812 L222.2479 57.2078 L230.4799 48.6897 L239.3797 40.1333 L248.836 31.545 L255.4837 25.7617 L255.5601 25.6973" clip-path="url(#clipPath2)"/>
      <path stroke-dasharray="6,2" d="M261.6321 20.4885 L249.2686 24.5067 L254.8011 26.3484 L255.7796 32.0966 Z" clip-path="url(#clipPath2)" stroke="none"/>
      <path fill="none" d="M165 287.1998 L165 338.6 L176.5159 338.6" clip-path="url(#clipPath2)"/>
      <path d="M184.5159 338.6 L172.5159 333.6 L175.5159 338.6 L172.5159 343.6 Z" clip-path="url(#clipPath2)" stroke="none"/>
      <path fill="none" d="M163.65 287.1937 L163.65 491.2 L176.5303 491.2" clip-path="url(#clipPath2)"/>
      <path d="M184.5303 491.2 L172.5303 486.2 L175.5303 491.2 L172.5303 496.2 Z" clip-path="url(#clipPath2)" stroke="none"/>
      <path fill="none" d="M199.5 506.2426 L199.5 539.2 L219.9973 539.2" clip-path="url(#clipPath2)"/>
      <path d="M227.9973 539.2 L215.9973 534.2 L218.9973 539.2 L215.9973 544.2 Z" clip-path="url(#clipPath2)" stroke="none"/>
      <path fill="none" stroke-dasharray="6,2" d="M407.092 263.5863 L410.9336 273.8817 L418.0969 298.2141 L422.9898 321.5973 L425.6125 344.0312 L425.9648 365.516 L424.0469 386.0516 L419.8586 405.6379 L413.4 424.275 L404.6711 441.9629 L393.6719 458.7016 L380.4023 474.491 L364.8625 489.3313 L347.0523 503.2223 L326.9719 516.1641 L319.0479 520.4158" clip-path="url(#clipPath2)"/>
      <path stroke-dasharray="6,2" d="M311.9986 524.1982 L324.9366 522.9304 L319.9291 519.943 L320.2086 514.1187 Z" clip-path="url(#clipPath2)" stroke="none"/>
      <path fill="none" stroke-dasharray="6,2" d="M-99.5341 247.4545 L-93.071 247.2593 L-83.6562 247.3125 L-74.3012 247.8741 L-65.0258 249.1134 L-55.85 251.2 L-46.7936 254.3032 L-37.8765 258.5926 L-29.1188 264.2375 L-20.5401 271.4074 L-12.1606 280.2718 L-4 291 L3.9399 303.6783 L11.7299 318.0602 L19.4594 333.8156 L27.2173 350.6148 L35.0928 368.1279 L43.175 386.025 L51.553 403.9763 L60.3161 421.6519 L69.5531 438.7219 L79.3534 454.8565 L89.806 469.7258 L101 483 L112.9982 494.4309 L125.7577 504.0972 L139.2094 512.1594 L153.284 518.7778 L167.9122 524.1129 L183.025 528.325 L198.553 531.5746 L214.4272 534.0222 L220.0725 534.6534" clip-path="url(#clipPath2)"/>
      <path stroke-dasharray="6,2" d="M228.023 535.5424 L216.6529 529.2399 L219.0787 534.5423 L215.5417 539.178 Z" clip-path="url(#clipPath2)" stroke="none"/>
      <path fill="none" d="M202 506.2108 L202 587.2 L220.0127 587.2" clip-path="url(#clipPath2)"/>
      <path d="M228.0127 587.2 L216.0127 582.2 L219.0127 587.2 L216.0127 592.2 Z" clip-path="url(#clipPath2)" stroke="none"/>
      <path fill="none" d="M199.5 353.599 L199.5 390.2 L219.9973 390.2" clip-path="url(#clipPath2)"/>
      <path d="M227.9973 390.2 L215.9973 385.2 L218.9973 390.2 L215.9973 395.2 Z" clip-path="url(#clipPath2)" stroke="none"/>
      <path fill="none" stroke-dasharray="6,2" d="M-99.5085 297.3128 L-88.5617 296.1589 L-75.5 294.8906 L-62.6272 293.8049 L-50.0062 292.9628 L-37.7 292.425 L-25.7716 292.2525 L-14.284 292.5062 L-3.3 293.2469 L7.1173 294.5355 L16.905 296.4329 L26 299 L34.3735 302.2709 L42.1327 306.1729 L49.4188 310.6063 L56.3728 315.4716 L63.1362 320.6694 L69.85 326.1 L76.6555 331.664 L83.6938 337.2617 L91.1062 342.7938 L99.034 348.1605 L107.6181 353.2624 L117 358 L127.2842 362.2967 L138.429 366.1682 L150.3562 369.6531 L162.9877 372.7901 L176.245 375.6179 L190.05 378.175 L204.3245 380.5002 L218.9901 382.6321 L220.0403 382.7707" clip-path="url(#clipPath2)"/>
      <path stroke-dasharray="6,2" d="M227.9715 383.8177 L216.729 377.2903 L219.0489 382.6399 L215.4203 387.2042 Z" clip-path="url(#clipPath2)" stroke="none"/>
      <path fill="none" stroke-dasharray="6,2" d="M453.5118 153.0883 L456.8537 153.6646 L460.696 154.4167 L464.5156 155.3438 L468.3012 156.5333 L472.0415 158.0729 L475.725 160.05 L479.3405 162.5521 L482.8766 165.6667 L486.3219 169.4812 L489.6651 174.0833 L492.895 179.5604 L496 186 L498.9514 193.4519 L501.6497 201.8148 L503.9781 210.95 L505.8198 220.7185 L507.0577 230.9815 L507.575 241.6 L507.2548 252.4352 L505.9803 263.3481 L503.6344 274.2 L500.1003 284.8519 L495.2611 295.1648 L489 305 L481.2408 314.2502 L472.071 322.9352 L461.6187 331.1063 L450.0123 338.8148 L437.38 346.1123 L423.85 353.05 L409.5505 359.6794 L394.6099 366.0518 L379.1562 372.2188 L363.3179 378.2315 L347.2231 384.1414 L339.5067 386.928" clip-path="url(#clipPath2)"/>
      <path stroke-dasharray="6,2" d="M331.9823 389.6453 L344.9671 390.2722 L340.4472 386.5884 L341.5706 380.8667 Z" clip-path="url(#clipPath2)" stroke="none"/>
      <path fill="none" d="M199.5 353.5537 L199.5 438.2 L219.9973 438.2" clip-path="url(#clipPath2)"/>
      <path d="M227.9973 438.2 L215.9973 433.2 L218.9973 438.2 L215.9973 443.2 Z" clip-path="url(#clipPath2)" stroke="none"/>
      <path fill="none" d="M-228.375 102.2232 L-228.375 391.1 L-213.2132 391.1" clip-path="url(#clipPath2)"/>
      <path d="M-205.2132 391.1 L-217.2132 386.1 L-214.2132 391.1 L-217.2132 396.1 Z" clip-path="url(#clipPath2)" stroke="none"/>
      <path fill="none" d="M165.8864 287.236 L159.72 647.2 L176.501 647.2" clip-path="url(#clipPath2)"/>
      <path d="M184.501 647.2 L172.501 642.2 L175.501 647.2 L172.501 652.2 Z" clip-path="url(#clipPath2)" stroke="none"/>
      <path fill="none" d="M199.5 662.1843 L199.5 698.4 L219.9973 698.4" clip-path="url(#clipPath2)"/>
      <path d="M227.9973 698.4 L215.9973 693.4 L218.9973 698.4 L215.9973 703.4 Z" clip-path="url(#clipPath2)" stroke="none"/>
      <path fill="none" stroke-dasharray="6,2" d="M-101.2335 402.4445 L-97.2247 403.4864 L-83.642 407.5907 L-70.3 412.35 L-57.2469 417.8954 L-44.5309 424.358 L-32.2 431.8687 L-20.3025 440.5587 L-8.8864 450.5587 L2 462 L12.3336 474.9461 L22.1914 489.1913 L31.675 504.4625 L40.8864 520.4865 L49.9275 536.99 L58.9 553.7 L67.9059 570.3434 L77.0469 586.6469 L86.425 602.3375 L96.142 617.142 L106.2997 630.7872 L117 643 L128.3188 653.5765 L140.2284 662.5895 L152.675 670.1813 L165.6049 676.4938 L178.9645 681.6694 L192.7 685.85 L206.7577 689.1779 L220.0695 691.6097 L220.1685 691.6237" clip-path="url(#clipPath2)"/>
      <path stroke-dasharray="6,2" d="M228.0842 692.7819 L216.9345 686.0973 L219.1791 691.4789 L215.4868 695.9919 Z" clip-path="url(#clipPath2)" stroke="none"/>
      <path fill="none" d="M199.5 662.1828 L199.5 746.4 L227.28 746.4 L227.975 746.4" clip-path="url(#clipPath2)"/>
      <path d="M227.975 746.4 L215.975 741.4 L218.975 746.4 L215.975 751.4 Z" clip-path="url(#clipPath2)" stroke="none"/>
    </g>
  </g>
</svg>
