<?xml version="1.0" encoding="UTF-8"?><svg xmlns="http://www.w3.org/2000/svg" xmlns:xlink="http://www.w3.org/1999/xlink" fill-opacity="1" color-rendering="auto" color-interpolation="auto" stroke="black" text-rendering="auto" stroke-linecap="square" width="2659" stroke-miterlimit="10" stroke-opacity="1" shape-rendering="auto" fill="black" stroke-dasharray="none" font-weight="normal" stroke-width="1" height="1546" font-family="'Dialog'" font-style="normal" stroke-linejoin="miter" font-size="12" stroke-dashoffset="0" image-rendering="auto">
  <!--Generated by ySVG-->
  <defs id="genericDefs"/>
  <g>
    <defs id="defs1">
      <clipPath clipPathUnits="userSpaceOnUse" id="clipPath1">
        <path d="M0 0 L2659 0 L2659 1546 L0 1546 L0 0 Z"/>
      </clipPath>
      <clipPath clipPathUnits="userSpaceOnUse" id="clipPath2">
        <path d="M-707 17 L1952 17 L1952 1563 L-707 1563 L-707 17 Z"/>
      </clipPath>
    </defs>
    <g fill="white" transform="translate(707,-17)" stroke="white">
      <rect x="-707" width="2659" height="1546" y="17" clip-path="url(#clipPath2)" stroke="none"/>
    </g>
    <g fill="rgb(245,245,245)" transform="matrix(1,0,0,1,707,-17)" stroke="rgb(245,245,245)">
      <rect x="-691.124" y="32.4244" clip-path="url(#clipPath2)" width="2627.1866" rx="4" ry="4" height="859.127" stroke="none"/>
      <rect x="-691.124" y="32.4244" clip-path="url(#clipPath2)" fill="rgb(235,235,235)" width="2627.1866" height="22.3765" stroke="none"/>
    </g>
    <g font-size="15" stroke-miterlimit="1.45" font-family="sans-serif" transform="matrix(1,0,0,1,707,-17)" stroke-linecap="butt">
      <text x="1871.5211" xml:space="preserve" y="49.505" clip-path="url(#clipPath2)" stroke="none">Group 10</text>
      <rect x="-691.124" y="32.4244" clip-path="url(#clipPath2)" fill="none" width="2627.1866" stroke-dasharray="6,2" rx="4" ry="4" height="859.127"/>
    </g>
    <g fill="rgb(225,225,225)" transform="matrix(1,0,0,1,707,-17)" stroke="rgb(225,225,225)">
      <rect x="710.5705" y="87.1818" clip-path="url(#clipPath2)" width="1191.0285" rx="4" ry="4" height="548.3592" stroke="none"/>
      <rect x="710.5705" y="87.1818" clip-path="url(#clipPath2)" fill="rgb(235,235,235)" width="1191.0285" height="22.3765" stroke="none"/>
    </g>
    <g font-size="15" stroke-miterlimit="1.45" font-family="sans-serif" transform="matrix(1,0,0,1,707,-17)" stroke-linecap="butt">
      <text x="1845.3998" xml:space="preserve" y="104.2624" clip-path="url(#clipPath2)" stroke="none">Group 9</text>
      <rect x="710.5705" y="87.1818" clip-path="url(#clipPath2)" fill="none" width="1191.0285" stroke-dasharray="6,2" rx="4" ry="4" height="548.3592"/>
    </g>
    <g fill="rgb(255,204,0)" transform="matrix(1,0,0,1,707,-17)" stroke="rgb(255,204,0)">
      <rect x="1040.4856" y="390.4544" clip-path="url(#clipPath2)" width="244.6651" rx="4" ry="4" height="49.8152" stroke="none"/>
    </g>
    <g font-size="20" stroke-miterlimit="1.45" font-family="sans-serif" transform="matrix(1,0,0,1,707,-17)" stroke-linecap="butt">
      <text x="1137.8132" xml:space="preserve" y="423.2185" clip-path="url(#clipPath2)" stroke="none">News</text>
      <rect x="1040.4856" y="390.4544" clip-path="url(#clipPath2)" fill="none" width="244.6651" rx="4" ry="4" height="49.8152"/>
    </g>
    <g fill="rgb(255,204,0)" transform="matrix(1,0,0,1,707,-17)" stroke="rgb(255,204,0)">
      <rect x="1040.4856" y="452.4417" clip-path="url(#clipPath2)" width="244.6651" rx="4" ry="4" height="49.8152" stroke="none"/>
    </g>
    <g font-size="20" stroke-miterlimit="1.45" font-family="sans-serif" transform="matrix(1,0,0,1,707,-17)" stroke-linecap="butt">
      <text x="1132.2468" xml:space="preserve" y="485.2058" clip-path="url(#clipPath2)" stroke="none">Events</text>
      <rect x="1040.4856" y="452.4417" clip-path="url(#clipPath2)" fill="none" width="244.6651" rx="4" ry="4" height="49.8152"/>
    </g>
    <g fill="rgb(255,204,0)" transform="matrix(1,0,0,1,707,-17)" stroke="rgb(255,204,0)">
      <rect x="765.8205" y="452.4417" clip-path="url(#clipPath2)" width="244.6651" rx="4" ry="4" height="49.8152" stroke="none"/>
    </g>
    <g font-size="20" stroke-miterlimit="1.45" font-family="sans-serif" transform="matrix(1,0,0,1,707,-17)" stroke-linecap="butt">
      <text x="863.1482" xml:space="preserve" y="485.2058" clip-path="url(#clipPath2)" stroke="none">Cities</text>
      <rect x="765.8205" y="452.4417" clip-path="url(#clipPath2)" fill="none" width="244.6651" rx="4" ry="4" height="49.8152"/>
    </g>
    <g fill="rgb(255,204,0)" transform="matrix(1,0,0,1,707,-17)" stroke="rgb(255,204,0)">
      <rect x="765.8205" y="390.4544" clip-path="url(#clipPath2)" width="244.6651" rx="4" ry="4" height="49.8152" stroke="none"/>
    </g>
    <g font-size="20" stroke-miterlimit="1.45" font-family="sans-serif" transform="matrix(1,0,0,1,707,-17)" stroke-linecap="butt">
      <text x="845.3552" xml:space="preserve" y="423.2185" clip-path="url(#clipPath2)" stroke="none">Countries</text>
      <rect x="765.8205" y="390.4544" clip-path="url(#clipPath2)" fill="none" width="244.6651" rx="4" ry="4" height="49.8152"/>
    </g>
    <g fill="gray" transform="matrix(1,0,0,1,707,-17)" stroke="gray">
      <rect x="725.5705" width="755.2102" height="110.4481" y="124.5583" clip-path="url(#clipPath2)" stroke="none"/>
    </g>
    <g font-size="30" stroke-linecap="butt" transform="matrix(1,0,0,1,707,-17)" fill="rgb(153,51,0)" font-family="sans-serif" stroke="rgb(153,51,0)" stroke-miterlimit="1.45">
      <text x="1029.8015" xml:space="preserve" y="160.7194" clip-path="url(#clipPath2)" stroke="none">Global Site</text>
      <text font-size="20" x="1042.0281" y="224.6118" clip-path="url(#clipPath2)" fill="white" stroke="none" xml:space="preserve">nightfever.org</text>
    </g>
    <g stroke-linecap="butt" transform="matrix(1,0,0,1,707,-17)" stroke-miterlimit="1.45">
      <rect fill="none" x="725.5705" width="755.2102" height="110.4481" y="124.5583" clip-path="url(#clipPath2)"/>
    </g>
    <g fill="rgb(255,255,153)" transform="matrix(1,0,0,1,707,-17)" stroke="rgb(255,255,153)">
      <rect x="1322.3205" width="105" height="58.0716" y="287.3828" clip-path="url(#clipPath2)" stroke="none"/>
    </g>
    <g font-size="20" stroke-miterlimit="1.45" font-family="sans-serif" transform="matrix(1,0,0,1,707,-17)" stroke-linecap="butt">
      <text x="1363.6974" xml:space="preserve" y="324.2751" clip-path="url(#clipPath2)" stroke="none">de</text>
      <rect fill="none" x="1322.3205" width="105" height="58.0716" y="287.3828" clip-path="url(#clipPath2)"/>
    </g>
    <g fill="rgb(255,255,153)" transform="matrix(1,0,0,1,707,-17)" stroke="rgb(255,255,153)">
      <rect x="1136.8205" width="105" height="58.0716" y="287.3828" clip-path="url(#clipPath2)" stroke="none"/>
    </g>
    <g font-size="20" stroke-miterlimit="1.45" font-family="sans-serif" transform="matrix(1,0,0,1,707,-17)" stroke-linecap="butt">
      <text x="1178.1974" xml:space="preserve" y="324.2751" clip-path="url(#clipPath2)" stroke="none">en</text>
      <rect fill="none" x="1136.8205" width="105" height="58.0716" y="287.3828" clip-path="url(#clipPath2)"/>
    </g>
    <g fill="rgb(255,255,153)" transform="matrix(1,0,0,1,707,-17)" stroke="rgb(255,255,153)">
      <rect x="951.3205" width="105" height="58.0716" y="287.3828" clip-path="url(#clipPath2)" stroke="none"/>
    </g>
    <g font-size="20" stroke-miterlimit="1.45" font-family="sans-serif" transform="matrix(1,0,0,1,707,-17)" stroke-linecap="butt">
      <text x="997.7121" xml:space="preserve" y="324.2751" clip-path="url(#clipPath2)" stroke="none">fr</text>
      <rect fill="none" x="951.3205" width="105" height="58.0716" y="287.3828" clip-path="url(#clipPath2)"/>
    </g>
    <g fill="rgb(255,255,153)" transform="matrix(1,0,0,1,707,-17)" stroke="rgb(255,255,153)">
      <rect x="765.8205" width="105" height="58.0716" y="287.3828" clip-path="url(#clipPath2)" stroke="none"/>
    </g>
    <g font-size="20" stroke-miterlimit="1.45" font-family="sans-serif" transform="matrix(1,0,0,1,707,-17)" stroke-linecap="butt">
      <text x="807.759" xml:space="preserve" y="324.2751" clip-path="url(#clipPath2)" stroke="none">es</text>
      <rect fill="none" x="765.8205" width="105" height="58.0716" y="287.3828" clip-path="url(#clipPath2)"/>
    </g>
    <g fill="white" transform="matrix(1,0,0,1,707,-17)" stroke="white">
      <rect x="1322.3205" y="474.3978" clip-path="url(#clipPath2)" width="263.5544" rx="4" ry="4" height="58.0716" stroke="none"/>
    </g>
    <g font-size="20" stroke-miterlimit="1.45" font-family="sans-serif" transform="matrix(1,0,0,1,707,-17)" stroke-linecap="butt">
      <text x="1428.5264" xml:space="preserve" y="511.2901" clip-path="url(#clipPath2)" stroke="none">Event</text>
      <rect x="1322.3205" y="474.3978" clip-path="url(#clipPath2)" fill="none" width="263.5544" rx="4" ry="4" height="58.0716"/>
    </g>
    <g fill="white" transform="matrix(1,0,0,1,707,-17)" stroke="white">
      <rect x="1623.0446" y="394.5826" clip-path="url(#clipPath2)" width="263.5544" rx="4" ry="4" height="58.0716" stroke="none"/>
    </g>
    <g font-size="20" stroke-miterlimit="1.45" font-family="sans-serif" transform="matrix(1,0,0,1,707,-17)" stroke-linecap="butt">
      <text x="1727.0386" xml:space="preserve" y="431.4748" clip-path="url(#clipPath2)" stroke="none">Article</text>
      <rect x="1623.0446" y="394.5826" clip-path="url(#clipPath2)" fill="none" width="263.5544" rx="4" ry="4" height="58.0716"/>
    </g>
    <g fill="white" transform="matrix(1,0,0,1,707,-17)" stroke="white">
      <rect x="1623.0446" y="474.3978" clip-path="url(#clipPath2)" width="263.5544" rx="4" ry="4" height="58.0716" stroke="none"/>
    </g>
    <g font-size="20" stroke-miterlimit="1.45" font-family="sans-serif" transform="matrix(1,0,0,1,707,-17)" stroke-linecap="butt">
      <text x="1727.5854" xml:space="preserve" y="511.2901" clip-path="url(#clipPath2)" stroke="none">Media</text>
      <rect x="1623.0446" y="474.3978" clip-path="url(#clipPath2)" fill="none" width="263.5544" rx="4" ry="4" height="58.0716"/>
    </g>
    <g fill="white" transform="matrix(1,0,0,1,707,-17)" stroke="white">
      <rect x="1623.0446" y="562.4694" clip-path="url(#clipPath2)" width="263.5544" rx="4" ry="4" height="58.0716" stroke="none"/>
    </g>
    <g font-size="20" stroke-miterlimit="1.45" font-family="sans-serif" transform="matrix(1,0,0,1,707,-17)" stroke-linecap="butt">
      <text x="1711.4771" xml:space="preserve" y="599.3616" clip-path="url(#clipPath2)" stroke="none">Micropost</text>
      <rect x="1623.0446" y="562.4694" clip-path="url(#clipPath2)" fill="none" width="263.5544" rx="4" ry="4" height="58.0716"/>
    </g>
    <g fill="white" transform="matrix(1,0,0,1,707,-17)" stroke="white">
      <rect x="1322.3205" y="386.3262" clip-path="url(#clipPath2)" width="263.5544" rx="4" ry="4" height="58.0716" stroke="none"/>
    </g>
    <g font-size="20" stroke-miterlimit="1.45" font-family="sans-serif" transform="matrix(1,0,0,1,707,-17)" stroke-linecap="butt">
      <text x="1430.7432" xml:space="preserve" y="423.2185" clip-path="url(#clipPath2)" stroke="none">Page</text>
      <rect x="1322.3205" y="386.3262" clip-path="url(#clipPath2)" fill="none" width="263.5544" rx="4" ry="4" height="58.0716"/>
      <path fill="none" d="M1386.3738 235.0319 L1376.5502 279.5452" clip-path="url(#clipPath2)"/>
      <path d="M1374.8262 287.3573 L1382.2947 276.7167 L1376.7656 278.5687 L1372.5297 274.5617 Z" clip-path="url(#clipPath2)" stroke="none"/>
      <path fill="none" d="M1197.5728 235.0319 L1190.5702 279.4548" clip-path="url(#clipPath2)"/>
      <path d="M1189.3245 287.3572 L1196.1321 276.2822 L1190.726 278.467 L1186.254 274.725 Z" clip-path="url(#clipPath2)" stroke="none"/>
      <path fill="none" d="M1008.7719 235.0319 L1004.5762 279.3928" clip-path="url(#clipPath2)"/>
      <path d="M1003.8229 287.3572 L1009.9306 275.8814 L1004.6703 278.3972 L999.975 274.9398 Z" clip-path="url(#clipPath2)" stroke="none"/>
      <path fill="none" d="M819.9709 235.0319 L818.5734 279.3612" clip-path="url(#clipPath2)"/>
      <path d="M818.3213 287.3573 L823.6969 275.5208 L818.6049 278.3617 L813.7019 275.2057 Z" clip-path="url(#clipPath2)" stroke="none"/>
      <path fill="none" d="M1285.1683 488.3059 L1314.3597 490.92" clip-path="url(#clipPath2)"/>
      <path d="M1322.3279 491.6335 L1310.8217 485.5832 L1313.3638 490.8308 L1309.9298 495.5433 Z" clip-path="url(#clipPath2)" stroke="none"/>
      <path fill="none" d="M1285.1285 417.0678 L1615.0366 421.6689" clip-path="url(#clipPath2)"/>
      <path d="M1623.0359 421.7804 L1611.1068 416.6136 L1614.0367 421.6549 L1610.9673 426.6126 Z" clip-path="url(#clipPath2)" stroke="none"/>
      <path fill="none" d="M1285.1285 433.558 L1615.1229 482.6508" clip-path="url(#clipPath2)"/>
      <path d="M1623.0359 483.828 L1611.9022 477.1167 L1614.1339 482.5037 L1610.4308 487.0078 Z" clip-path="url(#clipPath2)" stroke="none"/>
      <path fill="none" d="M1246.5385 440.2719 L1649.5862 560.1937" clip-path="url(#clipPath2)"/>
      <path d="M1657.2539 562.4752 L1647.1782 554.2606 L1648.6277 559.9084 L1644.3263 563.8453 Z" clip-path="url(#clipPath2)" stroke="none"/>
    </g>
    <g fill="rgb(225,225,225)" transform="matrix(1,0,0,1,707,-17)" stroke="rgb(225,225,225)">
      <rect x="58.0895" y="187.4729" clip-path="url(#clipPath2)" width="549.3303" rx="4" ry="4" height="417.8556" stroke="none"/>
      <rect x="58.0895" y="187.4729" clip-path="url(#clipPath2)" fill="rgb(235,235,235)" width="549.3303" height="22.3765" stroke="none"/>
    </g>
    <g font-size="15" stroke-miterlimit="1.45" font-family="sans-serif" transform="matrix(1,0,0,1,707,-17)" stroke-linecap="butt">
      <text x="551.2205" xml:space="preserve" y="204.5535" clip-path="url(#clipPath2)" stroke="none">Group 8</text>
      <rect x="58.0895" y="187.4729" clip-path="url(#clipPath2)" fill="none" width="549.3303" stroke-dasharray="6,2" rx="4" ry="4" height="417.8556"/>
    </g>
    <g fill="rgb(255,204,0)" transform="matrix(1,0,0,1,707,-17)" stroke="rgb(255,204,0)">
      <rect x="73.0895" y="540.5133" clip-path="url(#clipPath2)" width="244.6651" rx="4" ry="4" height="49.8152" stroke="none"/>
    </g>
    <g font-size="20" stroke-miterlimit="1.45" font-family="sans-serif" transform="matrix(1,0,0,1,707,-17)" stroke-linecap="butt">
      <text x="170.4171" xml:space="preserve" y="573.2774" clip-path="url(#clipPath2)" stroke="none">News</text>
      <rect x="73.0895" y="540.5133" clip-path="url(#clipPath2)" fill="none" width="244.6651" rx="4" ry="4" height="49.8152"/>
    </g>
    <g fill="rgb(255,204,0)" transform="matrix(1,0,0,1,707,-17)" stroke="rgb(255,204,0)">
      <rect x="347.7546" y="478.526" clip-path="url(#clipPath2)" width="244.6651" rx="4" ry="4" height="49.8152" stroke="none"/>
    </g>
    <g font-size="20" stroke-miterlimit="1.45" font-family="sans-serif" transform="matrix(1,0,0,1,707,-17)" stroke-linecap="butt">
      <text x="439.5158" xml:space="preserve" y="511.2901" clip-path="url(#clipPath2)" stroke="none">Events</text>
      <rect x="347.7546" y="478.526" clip-path="url(#clipPath2)" fill="none" width="244.6651" rx="4" ry="4" height="49.8152"/>
    </g>
    <g fill="rgb(255,204,0)" transform="matrix(1,0,0,1,707,-17)" stroke="rgb(255,204,0)">
      <rect x="73.0895" y="478.526" clip-path="url(#clipPath2)" width="244.6651" rx="4" ry="4" height="49.8152" stroke="none"/>
    </g>
    <g font-size="20" stroke-miterlimit="1.45" font-family="sans-serif" transform="matrix(1,0,0,1,707,-17)" stroke-linecap="butt">
      <text x="170.4171" xml:space="preserve" y="511.2901" clip-path="url(#clipPath2)" stroke="none">Cities</text>
      <rect x="73.0895" y="478.526" clip-path="url(#clipPath2)" fill="none" width="244.6651" rx="4" ry="4" height="49.8152"/>
    </g>
    <g fill="gray" transform="matrix(1,0,0,1,707,-17)" stroke="gray">
      <rect x="91.2898" width="352" height="85.5" y="224.8494" clip-path="url(#clipPath2)" stroke="none"/>
    </g>
    <g font-size="30" stroke-linecap="butt" transform="matrix(1,0,0,1,707,-17)" fill="rgb(153,51,0)" font-family="sans-serif" stroke="rgb(153,51,0)" stroke-miterlimit="1.45">
      <text x="163.0662" xml:space="preserve" y="261.0105" clip-path="url(#clipPath2)" stroke="none">Region/Country</text>
      <text font-size="20" x="170.0095" y="299.9549" clip-path="url(#clipPath2)" fill="white" stroke="none" xml:space="preserve">nightfever.org/[region]</text>
    </g>
    <g stroke-linecap="butt" transform="matrix(1,0,0,1,707,-17)" stroke-miterlimit="1.45">
      <rect fill="none" x="91.2898" width="352" height="85.5" y="224.8494" clip-path="url(#clipPath2)"/>
    </g>
    <g fill="rgb(255,255,153)" transform="matrix(1,0,0,1,707,-17)" stroke="rgb(255,255,153)">
      <rect x="307.5398" width="105" height="58.0716" y="368.9453" clip-path="url(#clipPath2)" stroke="none"/>
    </g>
    <g font-size="20" stroke-miterlimit="1.45" font-family="sans-serif" transform="matrix(1,0,0,1,707,-17)" stroke-linecap="butt">
      <text x="353.9314" xml:space="preserve" y="405.8375" clip-path="url(#clipPath2)" stroke="none">fr</text>
      <rect fill="none" x="307.5398" width="105" height="58.0716" y="368.9453" clip-path="url(#clipPath2)"/>
    </g>
    <g fill="rgb(255,255,153)" transform="matrix(1,0,0,1,707,-17)" stroke="rgb(255,255,153)">
      <rect x="122.0398" width="105" height="58.0716" y="368.9453" clip-path="url(#clipPath2)" stroke="none"/>
    </g>
    <g font-size="20" stroke-miterlimit="1.45" font-family="sans-serif" transform="matrix(1,0,0,1,707,-17)" stroke-linecap="butt">
      <text x="163.9783" xml:space="preserve" y="405.8375" clip-path="url(#clipPath2)" stroke="none">es</text>
      <rect fill="none" x="122.0398" width="105" height="58.0716" y="368.9453" clip-path="url(#clipPath2)"/>
      <path fill="none" d="M783.5264 390.4614 L451.0724 311.3388" clip-path="url(#clipPath2)"/>
      <path d="M443.2898 309.4866 L453.8061 317.1291 L452.0453 311.5704 L456.1214 307.4008 Z" clip-path="url(#clipPath2)" stroke="none"/>
      <path fill="none" d="M297.701 310.3494 L334.7472 362.4264" clip-path="url(#clipPath2)"/>
      <path d="M339.3845 368.9453 L336.5028 356.2687 L334.1675 361.6116 L328.3542 362.0653 Z" clip-path="url(#clipPath2)" stroke="none"/>
      <path fill="none" d="M236.8786 310.3494 L199.8324 362.4264" clip-path="url(#clipPath2)"/>
      <path d="M195.1951 368.9453 L206.2253 362.0653 L200.4121 361.6116 L198.0768 356.2687 Z" clip-path="url(#clipPath2)" stroke="none"/>
    </g>
    <g fill="rgb(225,225,225)" transform="matrix(1,0,0,1,707,-17)" stroke="rgb(225,225,225)">
      <rect x="-637.4439" y="540.5133" clip-path="url(#clipPath2)" width="665.5334" rx="4" ry="4" height="330.8942" stroke="none"/>
      <rect x="-637.4439" y="540.5133" clip-path="url(#clipPath2)" fill="rgb(235,235,235)" width="665.5334" height="22.3765" stroke="none"/>
    </g>
    <g font-size="15" stroke-miterlimit="1.45" font-family="sans-serif" transform="matrix(1,0,0,1,707,-17)" stroke-linecap="butt">
      <text x="-28.1098" xml:space="preserve" y="557.5939" clip-path="url(#clipPath2)" stroke="none">Group 9</text>
      <rect x="-637.4439" y="540.5133" clip-path="url(#clipPath2)" fill="none" width="665.5334" stroke-dasharray="6,2" rx="4" ry="4" height="330.8942"/>
    </g>
    <g fill="rgb(205,205,205)" transform="matrix(1,0,0,1,707,-17)" stroke="rgb(205,205,205)">
      <rect x="-581.0759" y="693.3898" clip-path="url(#clipPath2)" width="457.0959" rx="4" ry="4" height="136.5601" stroke="none"/>
      <rect x="-581.0759" y="693.3898" clip-path="url(#clipPath2)" fill="rgb(235,235,235)" width="457.0959" height="22.3765" stroke="none"/>
    </g>
    <g font-size="15" stroke-miterlimit="1.45" font-family="sans-serif" transform="matrix(1,0,0,1,707,-17)" stroke-linecap="butt">
      <text x="-180.1792" xml:space="preserve" y="710.4703" clip-path="url(#clipPath2)" stroke="none">Group 2</text>
      <rect x="-581.0759" y="693.3898" clip-path="url(#clipPath2)" fill="none" width="457.0959" stroke-dasharray="6,2" rx="4" ry="4" height="136.5601"/>
    </g>
    <g fill="rgb(255,255,153)" transform="matrix(1,0,0,1,707,-17)" stroke="rgb(255,255,153)">
      <rect x="-316.2231" width="105" height="58.0716" y="730.7663" clip-path="url(#clipPath2)" stroke="none"/>
    </g>
    <g font-size="20" stroke-miterlimit="1.45" font-family="sans-serif" transform="matrix(1,0,0,1,707,-17)" stroke-linecap="butt">
      <text x="-269.8315" xml:space="preserve" y="767.6585" clip-path="url(#clipPath2)" stroke="none">fr</text>
      <rect fill="none" x="-316.2231" width="105" height="58.0716" y="730.7663" clip-path="url(#clipPath2)"/>
    </g>
    <g fill="rgb(255,255,153)" transform="matrix(1,0,0,1,707,-17)" stroke="rgb(255,255,153)">
      <rect x="-512.0435" width="105" height="58.0716" y="730.7663" clip-path="url(#clipPath2)" stroke="none"/>
    </g>
    <g font-size="20" stroke-miterlimit="1.45" font-family="sans-serif" transform="matrix(1,0,0,1,707,-17)" stroke-linecap="butt">
      <text x="-470.105" xml:space="preserve" y="767.6585" clip-path="url(#clipPath2)" stroke="none">es</text>
      <rect fill="none" x="-512.0435" width="105" height="58.0716" y="730.7663" clip-path="url(#clipPath2)"/>
    </g>
    <g fill="gray" transform="matrix(1,0,0,1,707,-17)" stroke="gray">
      <rect x="-622.4439" width="614.1391" height="85.5" y="577.8898" clip-path="url(#clipPath2)" stroke="none"/>
    </g>
    <g font-size="30" stroke-linecap="butt" transform="matrix(1,0,0,1,707,-17)" fill="rgb(153,51,0)" font-family="sans-serif" stroke="rgb(153,51,0)" stroke-miterlimit="1.45">
      <text x="-445.4085" xml:space="preserve" y="614.0509" clip-path="url(#clipPath2)" stroke="none">Special (Micro Site)</text>
      <text font-size="20" x="-415.9847" y="652.9952" clip-path="url(#clipPath2)" fill="white" stroke="none" xml:space="preserve">nightfever.org/[special]</text>
    </g>
    <g stroke-linecap="butt" transform="matrix(1,0,0,1,707,-17)" stroke-miterlimit="1.45">
      <rect fill="none" x="-622.4439" width="614.1391" height="85.5" y="577.8898" clip-path="url(#clipPath2)"/>
      <path fill="none" stroke-width="3" d="M765.8096 491.9154 L1.6251 582.8983" clip-path="url(#clipPath2)"/>
      <path stroke-width="3" d="M-8.3048 584.0805 L7.3289 588.5133 L2.8663 582.7505 L5.8511 576.101 Z" clip-path="url(#clipPath2)" stroke="none"/>
      <path fill="none" stroke-width="3" d="M86.8965 528.3356 L-119.3188 575.6533" clip-path="url(#clipPath2)"/>
      <path stroke-width="3" d="M-129.0655 577.8898 L-113.0477 580.6268 L-118.1005 575.3738 L-115.8432 568.4434 Z" clip-path="url(#clipPath2)" stroke="none"/>
      <path fill="none" d="M-359.6624 663.3898 L-423.7071 725.2102" clip-path="url(#clipPath2)"/>
      <path d="M-429.463 730.7662 L-417.3567 726.0297 L-422.9876 724.5157 L-424.3017 718.8348 Z" clip-path="url(#clipPath2)" stroke="none"/>
      <path fill="none" d="M-299.5073 663.3898 L-277.2837 723.2662" clip-path="url(#clipPath2)"/>
      <path d="M-274.4999 730.7662 L-273.988 717.7763 L-277.6316 722.3287 L-283.3631 721.256 Z" clip-path="url(#clipPath2)" stroke="none"/>
    </g>
    <g fill="rgb(245,245,245)" transform="matrix(1,0,0,1,707,-17)" stroke="rgb(245,245,245)">
      <rect x="-509.5682" y="954.7801" clip-path="url(#clipPath2)" width="1158.0947" rx="4" ry="4" height="593.1753" stroke="none"/>
      <rect x="-509.5682" y="954.7801" clip-path="url(#clipPath2)" fill="rgb(235,235,235)" width="1158.0947" height="22.3765" stroke="none"/>
    </g>
    <g font-size="15" stroke-miterlimit="1.45" font-family="sans-serif" transform="matrix(1,0,0,1,707,-17)" stroke-linecap="butt">
      <text x="592.3273" xml:space="preserve" y="971.8607" clip-path="url(#clipPath2)" stroke="none">Group 6</text>
      <rect x="-509.5682" y="954.7801" clip-path="url(#clipPath2)" fill="none" width="1158.0947" stroke-dasharray="6,2" rx="4" ry="4" height="593.1753"/>
      <path fill="none" stroke-width="3" d="M861.795 502.2697 L390.427 947.9263" clip-path="url(#clipPath2)"/>
      <path stroke-width="3" d="M383.1606 954.7964 L398.3541 949.0327 L391.3354 947.0675 L389.7664 939.9496 Z" clip-path="url(#clipPath2)" stroke="none"/>
      <path fill="none" stroke-width="3" d="M191.2326 528.313 L121.085 944.897" clip-path="url(#clipPath2)"/>
      <path stroke-width="3" d="M119.4245 954.7582 L128.0785 941.0042 L121.2926 943.6644 L115.752 938.9286 Z" clip-path="url(#clipPath2)" stroke="none"/>
    </g>
    <g fill="rgb(225,225,225)" transform="matrix(1,0,0,1,707,-17)" stroke="rgb(225,225,225)">
      <rect x="-98.3319" y="1101.4221" clip-path="url(#clipPath2)" width="320.5" rx="4" ry="4" height="110.4481" stroke="none"/>
      <rect x="-98.3319" y="1101.4221" clip-path="url(#clipPath2)" fill="rgb(235,235,235)" width="320.5" height="22.3765" stroke="none"/>
    </g>
    <g font-size="15" stroke-miterlimit="1.45" font-family="sans-serif" transform="matrix(1,0,0,1,707,-17)" stroke-linecap="butt">
      <text x="165.9689" xml:space="preserve" y="1118.5027" clip-path="url(#clipPath2)" stroke="none">Group 2</text>
      <rect x="-98.3319" y="1101.4221" clip-path="url(#clipPath2)" fill="none" width="320.5" stroke-dasharray="6,2" rx="4" ry="4" height="110.4481"/>
    </g>
    <g fill="rgb(255,255,153)" transform="matrix(1,0,0,1,707,-17)" stroke="rgb(255,255,153)">
      <rect x="102.1681" width="105" height="58.0716" y="1138.7986" clip-path="url(#clipPath2)" stroke="none"/>
    </g>
    <g font-size="20" stroke-miterlimit="1.45" font-family="sans-serif" transform="matrix(1,0,0,1,707,-17)" stroke-linecap="butt">
      <text x="148.5597" xml:space="preserve" y="1175.6908" clip-path="url(#clipPath2)" stroke="none">fr</text>
      <rect fill="none" x="102.1681" width="105" height="58.0716" y="1138.7986" clip-path="url(#clipPath2)"/>
    </g>
    <g fill="rgb(255,255,153)" transform="matrix(1,0,0,1,707,-17)" stroke="rgb(255,255,153)">
      <rect x="-83.3319" width="105" height="58.0716" y="1138.7986" clip-path="url(#clipPath2)" stroke="none"/>
    </g>
    <g font-size="20" stroke-miterlimit="1.45" font-family="sans-serif" transform="matrix(1,0,0,1,707,-17)" stroke-linecap="butt">
      <text x="-41.3934" xml:space="preserve" y="1175.6908" clip-path="url(#clipPath2)" stroke="none">es</text>
      <rect fill="none" x="-83.3319" width="105" height="58.0716" y="1138.7986" clip-path="url(#clipPath2)"/>
    </g>
    <g fill="gray" transform="matrix(1,0,0,1,707,-17)" stroke="gray">
      <rect x="-230.4335" width="614.1391" height="85.5" y="992.1565" clip-path="url(#clipPath2)" stroke="none"/>
    </g>
    <g font-size="30" stroke-linecap="butt" transform="matrix(1,0,0,1,707,-17)" fill="rgb(153,51,0)" font-family="sans-serif" stroke="rgb(153,51,0)" stroke-miterlimit="1.45">
      <text x="50.8035" xml:space="preserve" y="1028.3176" clip-path="url(#clipPath2)" stroke="none">City</text>
      <text font-size="20" x="-7.8464" y="1067.262" clip-path="url(#clipPath2)" fill="white" stroke="none" xml:space="preserve">[city].nightfever.org</text>
    </g>
    <g stroke-linecap="butt" transform="matrix(1,0,0,1,707,-17)" stroke-miterlimit="1.45">
      <rect fill="none" x="-230.4335" width="614.1391" height="85.5" y="992.1565" clip-path="url(#clipPath2)"/>
    </g>
    <g fill="white" transform="matrix(1,0,0,1,707,-17)" stroke="white">
      <rect x="73.6513" y="1258.0122" clip-path="url(#clipPath2)" width="263.5544" rx="4" ry="4" height="58.0716" stroke="none"/>
    </g>
    <g font-size="20" stroke-miterlimit="1.45" font-family="sans-serif" transform="matrix(1,0,0,1,707,-17)" stroke-linecap="butt">
      <text x="179.8572" xml:space="preserve" y="1294.9044" clip-path="url(#clipPath2)" stroke="none">Event</text>
      <rect x="73.6513" y="1258.0122" clip-path="url(#clipPath2)" fill="none" width="263.5544" rx="4" ry="4" height="58.0716"/>
    </g>
    <g fill="white" transform="matrix(1,0,0,1,707,-17)" stroke="white">
      <rect x="-219.9031" y="1434.1554" clip-path="url(#clipPath2)" width="263.5544" rx="4" ry="4" height="58.0716" stroke="none"/>
    </g>
    <g font-size="20" stroke-miterlimit="1.45" font-family="sans-serif" transform="matrix(1,0,0,1,707,-17)" stroke-linecap="butt">
      <text x="-115.3622" xml:space="preserve" y="1471.0476" clip-path="url(#clipPath2)" stroke="none">Media</text>
      <rect x="-219.9031" y="1434.1554" clip-path="url(#clipPath2)" fill="none" width="263.5544" rx="4" ry="4" height="58.0716"/>
    </g>
    <g fill="white" transform="matrix(1,0,0,1,707,-17)" stroke="white">
      <rect x="-219.9031" y="1258.0122" clip-path="url(#clipPath2)" width="263.5544" rx="4" ry="4" height="58.0716" stroke="none"/>
    </g>
    <g font-size="20" stroke-miterlimit="1.45" font-family="sans-serif" transform="matrix(1,0,0,1,707,-17)" stroke-linecap="butt">
      <text x="-115.9091" xml:space="preserve" y="1294.9044" clip-path="url(#clipPath2)" stroke="none">Article</text>
      <rect x="-219.9031" y="1258.0122" clip-path="url(#clipPath2)" fill="none" width="263.5544" rx="4" ry="4" height="58.0716"/>
    </g>
    <g fill="white" transform="matrix(1,0,0,1,707,-17)" stroke="white">
      <rect x="-219.9031" y="1346.0838" clip-path="url(#clipPath2)" width="263.5544" rx="4" ry="4" height="58.0716" stroke="none"/>
    </g>
    <g font-size="20" stroke-miterlimit="1.45" font-family="sans-serif" transform="matrix(1,0,0,1,707,-17)" stroke-linecap="butt">
      <text x="-131.4706" xml:space="preserve" y="1382.9761" clip-path="url(#clipPath2)" stroke="none">Micropost</text>
      <rect x="-219.9031" y="1346.0838" clip-path="url(#clipPath2)" fill="none" width="263.5544" rx="4" ry="4" height="58.0716"/>
    </g>
    <g fill="white" transform="matrix(1,0,0,1,707,-17)" stroke="white">
      <rect x="73.6513" y="1346.0838" clip-path="url(#clipPath2)" width="263.5544" rx="4" ry="4" height="58.0716" stroke="none"/>
    </g>
    <g font-size="20" stroke-miterlimit="1.45" font-family="sans-serif" transform="matrix(1,0,0,1,707,-17)" stroke-linecap="butt">
      <text x="182.074" xml:space="preserve" y="1382.9761" clip-path="url(#clipPath2)" stroke="none">Page</text>
      <rect x="73.6513" y="1346.0838" clip-path="url(#clipPath2)" fill="none" width="263.5544" rx="4" ry="4" height="58.0716"/>
    </g>
    <g fill="rgb(255,204,0)" transform="matrix(1,0,0,1,707,-17)" stroke="rgb(255,204,0)">
      <rect x="388.8613" y="1262.1404" clip-path="url(#clipPath2)" width="244.6651" rx="4" ry="4" height="49.8152" stroke="none"/>
    </g>
    <g font-size="20" stroke-miterlimit="1.45" font-family="sans-serif" transform="matrix(1,0,0,1,707,-17)" stroke-linecap="butt">
      <text x="480.6226" xml:space="preserve" y="1294.9044" clip-path="url(#clipPath2)" stroke="none">Events</text>
      <rect x="388.8613" y="1262.1404" clip-path="url(#clipPath2)" fill="none" width="244.6651" rx="4" ry="4" height="49.8152"/>
    </g>
    <g fill="rgb(255,204,0)" transform="matrix(1,0,0,1,707,-17)" stroke="rgb(255,204,0)">
      <rect x="-494.5682" y="1262.1404" clip-path="url(#clipPath2)" width="244.6651" rx="4" ry="4" height="49.8152" stroke="none"/>
    </g>
    <g font-size="20" stroke-miterlimit="1.45" font-family="sans-serif" transform="matrix(1,0,0,1,707,-17)" stroke-linecap="butt">
      <text x="-397.2405" xml:space="preserve" y="1294.9044" clip-path="url(#clipPath2)" stroke="none">News</text>
      <rect x="-494.5682" y="1262.1404" clip-path="url(#clipPath2)" fill="none" width="244.6651" rx="4" ry="4" height="49.8152"/>
      <path fill="none" d="M42.074 1077.6565 L-2.3278 1132.5774" clip-path="url(#clipPath2)"/>
      <path d="M-7.3574 1138.7986 L4.0753 1132.6104 L-1.6991 1131.7998 L-3.7012 1126.3234 Z" clip-path="url(#clipPath2)" stroke="none"/>
      <path fill="none" d="M101.7314 1077.6565 L133.5734 1131.8994" clip-path="url(#clipPath2)"/>
      <path d="M137.6233 1138.7986 L135.8604 1125.9187 L133.0672 1131.0371 L127.2365 1130.9811 Z" clip-path="url(#clipPath2)" stroke="none"/>
      <path fill="none" stroke-width="3" d="M471.3943 528.3521 L509.3656 1252.1948" clip-path="url(#clipPath2)"/>
      <path stroke-width="3" d="M509.8894 1262.1812 L515.345 1246.8744 L509.3001 1250.9467 L502.8622 1247.5292 Z" clip-path="url(#clipPath2)" stroke="none"/>
      <path fill="none" stroke-width="3" d="M1142.793 502.2324 L537.4901 1254.3728" clip-path="url(#clipPath2)"/>
      <path stroke-width="3" d="M531.2205 1262.1633 L545.494 1254.3961 L538.2738 1253.399 L535.7559 1246.5591 Z" clip-path="url(#clipPath2)" stroke="none"/>
      <path fill="none" d="M388.8802 1287.048 L345.2397 1287.048" clip-path="url(#clipPath2)"/>
      <path d="M337.2397 1287.048 L349.2397 1292.048 L346.2397 1287.048 L349.2397 1282.048 Z" clip-path="url(#clipPath2)" stroke="none"/>
      <path fill="none" stroke-width="3" d="M175.8291 590.3282 L-346.4673 1254.2903" clip-path="url(#clipPath2)"/>
      <path stroke-width="3" d="M-352.6499 1262.15 L-338.4637 1254.2246 L-345.6945 1253.3079 L-348.2883 1246.4963 Z" clip-path="url(#clipPath2)" stroke="none"/>
      <path fill="none" stroke-width="3" d="M1118.9468 440.2746 L-319.6936 1257.2118" clip-path="url(#clipPath2)"/>
      <path stroke-width="3" d="M-328.3894 1262.1498 L-312.2595 1260.1777 L-318.6066 1256.5946 L-318.4319 1249.308 Z" clip-path="url(#clipPath2)" stroke="none"/>
      <path fill="none" d="M-249.9145 1287.048 L-227.9346 1287.048" clip-path="url(#clipPath2)"/>
      <path d="M-219.9346 1287.048 L-231.9346 1282.048 L-228.9346 1287.048 L-231.9346 1292.048 Z" clip-path="url(#clipPath2)" stroke="none"/>
      <path fill="none" d="M-291.8789 1311.9579 L-189.411 1343.722" clip-path="url(#clipPath2)"/>
      <path d="M-181.7697 1346.0908 L-191.7512 1337.7618 L-190.3662 1343.4259 L-194.7121 1347.3135 Z" clip-path="url(#clipPath2)" stroke="none"/>
      <path fill="none" d="M-332.0399 1311.9686 L-141.7607 1429.9385" clip-path="url(#clipPath2)"/>
      <path d="M-134.9615 1434.1539 L-142.5257 1423.5812 L-142.6106 1429.4115 L-147.795 1432.0803 Z" clip-path="url(#clipPath2)" stroke="none"/>
    </g>
    <g fill="rgb(245,245,245)" transform="matrix(1,0,0,1,707,-17)" stroke="rgb(245,245,245)">
      <rect x="696.6606" y="954.7801" clip-path="url(#clipPath2)" width="1169.788" rx="4" ry="4" height="582.9244" stroke="none"/>
      <rect x="696.6606" y="954.7801" clip-path="url(#clipPath2)" fill="rgb(235,235,235)" width="1169.788" height="22.3765" stroke="none"/>
    </g>
    <g font-size="15" stroke-miterlimit="1.45" font-family="sans-serif" transform="matrix(1,0,0,1,707,-17)" stroke-linecap="butt">
      <text x="1810.2494" xml:space="preserve" y="971.8607" clip-path="url(#clipPath2)" stroke="none">Group 7</text>
      <rect x="696.6606" y="954.7801" clip-path="url(#clipPath2)" fill="none" width="1169.788" stroke-dasharray="6,2" rx="4" ry="4" height="582.9244"/>
    </g>
    <g fill="rgb(225,225,225)" transform="matrix(1,0,0,1,707,-17)" stroke="rgb(225,225,225)">
      <rect x="1102.0426" y="1107.6565" clip-path="url(#clipPath2)" width="320.5" rx="4" ry="4" height="110.4481" stroke="none"/>
      <rect x="1102.0426" y="1107.6565" clip-path="url(#clipPath2)" fill="rgb(235,235,235)" width="320.5" height="22.3765" stroke="none"/>
    </g>
    <g font-size="15" stroke-miterlimit="1.45" font-family="sans-serif" transform="matrix(1,0,0,1,707,-17)" stroke-linecap="butt">
      <text x="1366.3434" xml:space="preserve" y="1124.7371" clip-path="url(#clipPath2)" stroke="none">Group 2</text>
      <rect x="1102.0426" y="1107.6565" clip-path="url(#clipPath2)" fill="none" width="320.5" stroke-dasharray="6,2" rx="4" ry="4" height="110.4481"/>
    </g>
    <g fill="rgb(255,255,153)" transform="matrix(1,0,0,1,707,-17)" stroke="rgb(255,255,153)">
      <rect x="1302.5426" width="105" height="58.0716" y="1145.033" clip-path="url(#clipPath2)" stroke="none"/>
    </g>
    <g font-size="20" stroke-miterlimit="1.45" font-family="sans-serif" transform="matrix(1,0,0,1,707,-17)" stroke-linecap="butt">
      <text x="1348.9342" xml:space="preserve" y="1181.9253" clip-path="url(#clipPath2)" stroke="none">fr</text>
      <rect fill="none" x="1302.5426" width="105" height="58.0716" y="1145.033" clip-path="url(#clipPath2)"/>
    </g>
    <g fill="rgb(255,255,153)" transform="matrix(1,0,0,1,707,-17)" stroke="rgb(255,255,153)">
      <rect x="1117.0426" width="105" height="58.0716" y="1145.033" clip-path="url(#clipPath2)" stroke="none"/>
    </g>
    <g font-size="20" stroke-miterlimit="1.45" font-family="sans-serif" transform="matrix(1,0,0,1,707,-17)" stroke-linecap="butt">
      <text x="1158.9811" xml:space="preserve" y="1181.9253" clip-path="url(#clipPath2)" stroke="none">es</text>
      <rect fill="none" x="1117.0426" width="105" height="58.0716" y="1145.033" clip-path="url(#clipPath2)"/>
    </g>
    <g fill="gray" transform="matrix(1,0,0,1,707,-17)" stroke="gray">
      <rect x="938.7103" width="647.1645" height="85.5" y="992.1565" clip-path="url(#clipPath2)" stroke="none"/>
    </g>
    <g font-size="30" stroke-linecap="butt" transform="matrix(1,0,0,1,707,-17)" fill="rgb(153,51,0)" font-family="sans-serif" stroke="rgb(153,51,0)" stroke-miterlimit="1.45">
      <text x="1215.608" xml:space="preserve" y="1028.3176" clip-path="url(#clipPath2)" stroke="none">Project</text>
      <text font-size="20" x="1162.7955" y="1067.262" clip-path="url(#clipPath2)" fill="white" stroke="none" xml:space="preserve">[project].nightfever.org</text>
    </g>
    <g stroke-linecap="butt" transform="matrix(1,0,0,1,707,-17)" stroke-miterlimit="1.45">
      <rect fill="none" x="938.7103" width="647.1645" height="85.5" y="992.1565" clip-path="url(#clipPath2)"/>
    </g>
    <g fill="white" transform="matrix(1,0,0,1,707,-17)" stroke="white">
      <rect x="1291.5735" y="1288.4897" clip-path="url(#clipPath2)" width="263.5544" rx="4" ry="4" height="58.0716" stroke="none"/>
    </g>
    <g font-size="20" stroke-miterlimit="1.45" font-family="sans-serif" transform="matrix(1,0,0,1,707,-17)" stroke-linecap="butt">
      <text x="1397.7793" xml:space="preserve" y="1325.382" clip-path="url(#clipPath2)" stroke="none">Event</text>
      <rect x="1291.5735" y="1288.4897" clip-path="url(#clipPath2)" fill="none" width="263.5544" rx="4" ry="4" height="58.0716"/>
    </g>
    <g fill="white" transform="matrix(1,0,0,1,707,-17)" stroke="white">
      <rect x="998.0191" y="1464.6329" clip-path="url(#clipPath2)" width="263.5544" rx="4" ry="4" height="58.0716" stroke="none"/>
    </g>
    <g font-size="20" stroke-miterlimit="1.45" font-family="sans-serif" transform="matrix(1,0,0,1,707,-17)" stroke-linecap="butt">
      <text x="1102.5599" xml:space="preserve" y="1501.5251" clip-path="url(#clipPath2)" stroke="none">Media</text>
      <rect x="998.0191" y="1464.6329" clip-path="url(#clipPath2)" fill="none" width="263.5544" rx="4" ry="4" height="58.0716"/>
    </g>
    <g fill="white" transform="matrix(1,0,0,1,707,-17)" stroke="white">
      <rect x="998.0191" y="1288.4897" clip-path="url(#clipPath2)" width="263.5544" rx="4" ry="4" height="58.0716" stroke="none"/>
    </g>
    <g font-size="20" stroke-miterlimit="1.45" font-family="sans-serif" transform="matrix(1,0,0,1,707,-17)" stroke-linecap="butt">
      <text x="1102.0131" xml:space="preserve" y="1325.382" clip-path="url(#clipPath2)" stroke="none">Article</text>
      <rect x="998.0191" y="1288.4897" clip-path="url(#clipPath2)" fill="none" width="263.5544" rx="4" ry="4" height="58.0716"/>
    </g>
    <g fill="white" transform="matrix(1,0,0,1,707,-17)" stroke="white">
      <rect x="998.0191" y="1376.5613" clip-path="url(#clipPath2)" width="263.5544" rx="4" ry="4" height="58.0716" stroke="none"/>
    </g>
    <g font-size="20" stroke-miterlimit="1.45" font-family="sans-serif" transform="matrix(1,0,0,1,707,-17)" stroke-linecap="butt">
      <text x="1086.4515" xml:space="preserve" y="1413.4535" clip-path="url(#clipPath2)" stroke="none">Micropost</text>
      <rect x="998.0191" y="1376.5613" clip-path="url(#clipPath2)" fill="none" width="263.5544" rx="4" ry="4" height="58.0716"/>
    </g>
    <g fill="white" transform="matrix(1,0,0,1,707,-17)" stroke="white">
      <rect x="1291.5735" y="1376.5613" clip-path="url(#clipPath2)" width="263.5544" rx="4" ry="4" height="58.0716" stroke="none"/>
    </g>
    <g font-size="20" stroke-miterlimit="1.45" font-family="sans-serif" transform="matrix(1,0,0,1,707,-17)" stroke-linecap="butt">
      <text x="1399.9961" xml:space="preserve" y="1413.4535" clip-path="url(#clipPath2)" stroke="none">Page</text>
      <rect x="1291.5735" y="1376.5613" clip-path="url(#clipPath2)" fill="none" width="263.5544" rx="4" ry="4" height="58.0716"/>
    </g>
    <g fill="rgb(255,204,0)" transform="matrix(1,0,0,1,707,-17)" stroke="rgb(255,204,0)">
      <rect x="1606.7835" y="1292.6179" clip-path="url(#clipPath2)" width="244.6651" rx="4" ry="4" height="49.8152" stroke="none"/>
    </g>
    <g font-size="20" stroke-miterlimit="1.45" font-family="sans-serif" transform="matrix(1,0,0,1,707,-17)" stroke-linecap="butt">
      <text x="1698.5448" xml:space="preserve" y="1325.382" clip-path="url(#clipPath2)" stroke="none">Events</text>
      <rect x="1606.7835" y="1292.6179" clip-path="url(#clipPath2)" fill="none" width="244.6651" rx="4" ry="4" height="49.8152"/>
    </g>
    <g fill="rgb(255,204,0)" transform="matrix(1,0,0,1,707,-17)" stroke="rgb(255,204,0)">
      <rect x="723.354" y="1292.6179" clip-path="url(#clipPath2)" width="244.6651" rx="4" ry="4" height="49.8152" stroke="none"/>
    </g>
    <g font-size="20" stroke-miterlimit="1.45" font-family="sans-serif" transform="matrix(1,0,0,1,707,-17)" stroke-linecap="butt">
      <text x="820.6816" xml:space="preserve" y="1325.382" clip-path="url(#clipPath2)" stroke="none">News</text>
      <rect x="723.354" y="1292.6179" clip-path="url(#clipPath2)" fill="none" width="244.6651" rx="4" ry="4" height="49.8152"/>
      <path fill="none" d="M1233.8002 1077.6565 L1193.3314 1138.3761" clip-path="url(#clipPath2)"/>
      <path d="M1188.8945 1145.033 L1199.7104 1137.8207 L1193.886 1137.5439 L1191.3893 1132.2745 Z" clip-path="url(#clipPath2)" stroke="none"/>
      <path fill="none" d="M1290.7849 1077.6565 L1331.2538 1138.3761" clip-path="url(#clipPath2)"/>
      <path d="M1335.6906 1145.0331 L1333.1959 1132.2747 L1330.6991 1137.5441 L1324.8748 1137.8207 Z" clip-path="url(#clipPath2)" stroke="none"/>
      <path fill="none" stroke-width="3" d="M1179.599 502.2459 L1706.7402 1284.328" clip-path="url(#clipPath2)"/>
      <path stroke-width="3" d="M1712.3293 1292.6202 L1709.1283 1276.6886 L1706.0416 1283.2915 L1698.7629 1283.675 Z" clip-path="url(#clipPath2)" stroke="none"/>
      <path fill="none" d="M1606.8025 1317.5255 L1563.1619 1317.5255" clip-path="url(#clipPath2)"/>
      <path d="M1555.1619 1317.5255 L1567.1619 1322.5255 L1564.1619 1317.5255 L1567.1619 1312.5255 Z" clip-path="url(#clipPath2)" stroke="none"/>
      <path fill="none" stroke-width="3" d="M1154.0594 440.2784 L857.7643 1283.1672" clip-path="url(#clipPath2)"/>
      <path stroke-width="3" d="M854.448 1292.6013 L865.3187 1280.5228 L858.1788 1281.9879 L853.5261 1276.3774 Z" clip-path="url(#clipPath2)" stroke="none"/>
      <path fill="none" d="M968.0077 1317.5255 L989.9875 1317.5255" clip-path="url(#clipPath2)"/>
      <path d="M997.9875 1317.5255 L985.9875 1312.5255 L988.9875 1317.5255 L985.9875 1322.5255 Z" clip-path="url(#clipPath2)" stroke="none"/>
      <path fill="none" d="M926.0433 1342.4354 L1028.5112 1374.1996" clip-path="url(#clipPath2)"/>
      <path d="M1036.1525 1376.5684 L1026.171 1368.2394 L1027.556 1373.9034 L1023.2101 1377.791 Z" clip-path="url(#clipPath2)" stroke="none"/>
      <path fill="none" d="M885.8823 1342.4462 L1076.1615 1460.416" clip-path="url(#clipPath2)"/>
      <path d="M1082.9607 1464.6315 L1075.3965 1454.0587 L1075.3115 1459.889 L1070.1272 1462.5577 Z" clip-path="url(#clipPath2)" stroke="none"/>
    </g>
  </g>
</svg>
